<?xml version="1.0" standalone="no"?><!DOCTYPE svg PUBLIC "-//W3C//DTD SVG 1.1//EN" "http://www.w3.org/Graphics/SVG/1.1/DTD/svg11.dtd"><svg t="1507642988815" class="icon" style="" viewBox="0 0 1024 1024" version="1.1" xmlns="http://www.w3.org/2000/svg" p-id="4076" xmlns:xlink="http://www.w3.org/1999/xlink" width="32" height="32"><defs><style type="text/css"></style></defs><path d="M417.454 549.26l-84.961 0c-14.004 0-25.346 8.078-25.346 18.047l0 41.236c0 9.975 11.352 18.047 25.346 18.047l84.961 0c13.986 0 25.326-8.072 25.326-18.047l0-41.236C442.781 557.338 431.439 549.26 417.454 549.26z" p-id="4077" fill="#ffffff"></path><path d="M710.426 143.496 313.573 143.496c-93.932 0-170.076 76.146-170.076 170.078l0 396.852c0 93.932 76.146 170.078 170.076 170.078l396.854 0c93.932 0 170.078-76.146 170.078-170.078L880.505 313.574C880.504 219.642 804.358 143.496 710.426 143.496zM617.511 499.893c0 24.108-18.939 43.649-42.291 43.649l-83.347 0 0 70.588c0 24.1-19.54 43.648-43.649 43.648L301.697 657.778c-24.098 0-43.639-19.549-43.639-43.648l0-78.383c-10.984-7.885-18.184-21-18.184-35.862l0-90.017c0-24.108 18.939-43.648 42.291-43.648L575.22 366.22c23.359 0 42.291 19.54 42.291 43.648L617.511 499.893zM766.982 472.027 664.353 472.027l0 12.475c0 13.771-11.178 24.939-24.949 24.939l-9.951 0c0.627-3.029 0.988-6.138 0.988-9.356L630.441 419.02c0-6.696-1.512-13.023-4.121-18.699l13.084 0c13.771 0 24.949 11.17 24.949 24.957l0 12.457 102.629 0c9.477 0 17.145 7.666 17.145 17.139C784.126 464.336 776.46 472.027 766.982 472.027z" p-id="4078" fill="#ffffff"></path></svg>