<?xml version="1.0" standalone="no"?><!DOCTYPE svg PUBLIC "-//W3C//DTD SVG 1.1//EN" "http://www.w3.org/Graphics/SVG/1.1/DTD/svg11.dtd"><svg t="1507558913111" class="icon" style="" viewBox="0 0 1024 1024" version="1.1" xmlns="http://www.w3.org/2000/svg" p-id="21916" xmlns:xlink="http://www.w3.org/1999/xlink" width="32" height="32"><defs><style type="text/css"></style></defs><path d="M62.386488 52.888545c-8.911931 0-16.197482 7.285551-16.197482 16.21827l0 332.241903c0 8.932719 7.285551 16.21827 16.197482 16.21827l332.221115 0c8.953506 0 16.21827-7.285551 16.21827-16.21827l0-332.241903c0-8.932719-7.264763-16.21827-16.21827-16.21827l-332.221115 0zM629.349831 52.888545c-8.911931 0-16.21827 7.285551-16.21827 16.21827l0 332.241903c0 8.932719 7.306338 16.21827 16.21827 16.21827l332.263681 0c8.911931 0 16.21827-7.285551 16.21827-16.21827l0-332.241903c0-8.932719-7.306338-16.21827-16.21827-16.21827l-332.263681 0zM629.349831 13.399078l332.263681 0c30.641878 0 55.686949 25.087636 55.686949 55.707737l0 332.241903c0 30.620101-25.045071 55.707737-55.686949 55.707737l-332.263681 0c-30.599313 0-55.686949-25.087636-55.686949-55.707737l0-332.241903c0-30.620101 25.066848-55.707737 55.686949-55.707737zM62.386488 619.873666c-8.911931 0-16.197482 7.264763-16.197482 16.21827l0 332.221115c0 8.911931 7.285551 16.21827 16.197482 16.21827l332.221115 0c8.953506 0 16.21827-7.306338 16.21827-16.21827l0-332.221115c0-8.953506-7.264763-16.21827-16.21827-16.21827l-332.221115 0zM62.386488 580.362422l332.221115 0c30.662666 0 55.729514 25.087636 55.729514 55.729514l0 332.221115c0 30.641878-25.066848 55.686949-55.729514 55.686949l-332.221115 0c-30.641878 0-55.686949-25.045071-55.686949-55.686949l0-332.221115c0-30.662666 25.045071-55.729514 55.686949-55.729514zM629.349831 580.362422l332.263681 0c30.641878 0 55.686949 25.087636 55.686949 55.729514l0 332.221115c0 30.641878-25.045071 55.686949-55.686949 55.686949l-332.263681 0c-30.599313 0-55.686949-25.045071-55.686949-55.686949l0-332.221115c0-30.662666 25.066848-55.729514 55.686949-55.729514zM62.386488 13.399078l332.221115 0c30.662666 0 55.729514 25.087636 55.729514 55.707737l0 332.241903c0 30.620101-25.066848 55.707737-55.729514 55.707737l-332.221115 0c-30.641878 0-55.686949-25.087636-55.686949-55.707737l0-332.241903c0-30.620101 25.045071-55.707737 55.686949-55.707737z" p-id="21917" fill="#ffffff"></path></svg>