<?xml version="1.0" standalone="no"?><!DOCTYPE svg PUBLIC "-//W3C//DTD SVG 1.1//EN" "http://www.w3.org/Graphics/SVG/1.1/DTD/svg11.dtd"><svg t="1507558818972" class="icon" style="" viewBox="0 0 1024 1024" version="1.1" xmlns="http://www.w3.org/2000/svg" p-id="21084" xmlns:xlink="http://www.w3.org/1999/xlink" width="32" height="32"><defs><style type="text/css"></style></defs><path d="M968.82688 478.47424V171.70432c0-61.6448-40.8064-153.37472-153.40032-153.37472-94.62784 0-138.13248 64.88064-149.66784 122.20416-45.81376 14.72-79.16032 57.15456-79.16032 107.86816h227.65568c0-47.64672-29.28128-88.32-70.80448-105.27744 7.20896-22.1952 25.43616-48.09728 71.97696-48.09728 70.06208 0 76.43136 58.92608 76.70784 76.672v306.76992H48.57856A38.31808 38.31808 0 0 0 10.24 516.80256v38.33344a38.31808 38.31808 0 0 0 38.33856 38.36928v115.03616c0 83.10784 70.13888 164.75136 151.2192 186.17344-3.77856 18.69824-13.56288 43.88352-36.20864 43.88352a38.30784 38.30784 0 0 0-38.30272 38.34368 38.2976 38.2976 0 0 0 38.30272 38.3232c66.2272 0 105.26208-55.80288 113.34656-115.0208h463.54432c8.04864 59.2128 47.10912 115.0208 113.28512 115.0208a38.28736 38.28736 0 0 0 38.3488-38.3232 38.28736 38.28736 0 0 0-38.3488-38.34368c-22.59968 0-32.40448-25.18528-36.224-43.88352 81.16224-21.4272 151.28576-103.0656 151.28576-186.17344v-115.03616a38.32832 38.32832 0 0 0 38.35392-38.36928v-38.33344a38.31808 38.31808 0 0 0-38.35392-38.32832z m-76.69248 230.0672c0 54.79936-60.20096 115.00544-115.03616 115.00544H240.30208c-53.79072 0-115.01568-61.2352-115.01568-115.00544v-115.03616h766.848v115.03616z m-289.35168-417.14688l2.37056-9.2928c2.51392-10.34752 12.79488-16.55808 23.25504-13.93664a19.03616 19.03616 0 0 1 13.9008 23.22944l-2.3296 9.25696a19.1232 19.1232 0 0 1-18.56 14.56128c-1.5616 0-3.05152-0.22016-4.65408-0.60928-10.2656-2.54976-16.45568-12.93312-13.98272-23.20896z m-18.69312 74.92096l3.77344-14.98624a19.01056 19.01056 0 0 1 23.23968-13.99296 19.16416 19.16416 0 0 1 13.98784 23.22944l-3.79904 15.00672a19.2 19.2 0 0 1-23.2192 13.98272c-10.2912-2.60608-16.5632-13.02528-13.98272-23.23968z m-17.26976 69.1712l2.3296-9.27744a19.04128 19.04128 0 0 1 23.23456-13.97248 19.10272 19.10272 0 0 1 13.93664 23.2448l-2.36544 9.28256c-2.07872 8.72448-9.92256 14.53568-18.53952 14.53568-1.536 0-3.072-0.19456-4.65408-0.60928a19.05152 19.05152 0 0 1-13.94176-23.20384z m231.22944-144.09216a19.14368 19.14368 0 0 1-13.96224 23.20384 18.93376 18.93376 0 0 1-4.64896 0.60928 19.10272 19.10272 0 0 1-18.57024-14.56128l-2.3296-9.25696a19.1232 19.1232 0 0 1 13.952-23.22944c10.01984-2.68288 20.6592 3.58912 23.2192 13.93664l2.33984 9.29792z m18.71872 74.92096a19.23584 19.23584 0 0 1-13.96224 23.23456 19.79904 19.79904 0 0 1-4.65408 0.55296 19.1488 19.1488 0 0 1-18.58048-14.53568l-3.77856-15.00672a19.26144 19.26144 0 0 1 13.99296-23.22944c10.01984-2.65728 20.64896 3.72224 23.1936 13.99296l3.7888 14.99136z m-8.2432 45.9264c10.10688-2.67776 20.62848 3.712 23.1936 13.97248l2.3296 9.27744a19.1744 19.1744 0 0 1-13.952 23.20896 17.7408 17.7408 0 0 1-4.66944 0.60928c-8.58624 0-16.4352-5.8112-18.53952-14.53568l-2.3552-9.28256a19.18976 19.18976 0 0 1 13.99296-23.24992z m-127.27808-115.92704v-9.5744a19.21024 19.21024 0 0 1 19.20512-19.15904 19.16416 19.16416 0 0 1 19.14368 19.15904v9.5744a19.1744 19.1744 0 0 1-19.14368 19.18464 19.22048 19.22048 0 0 1-19.20512-19.18464z m0 59.68384a19.21024 19.21024 0 0 1 19.20512-19.15904 19.16416 19.16416 0 0 1 19.14368 19.15904v14.8992a19.1488 19.1488 0 0 1-19.14368 19.1744 19.2 19.2 0 0 1-19.20512-19.1744v-14.8992z m0 74.52672a19.22048 19.22048 0 0 1 19.20512-19.15904 19.1744 19.1744 0 0 1 19.14368 19.15904v9.60512a19.18976 19.18976 0 0 1-19.14368 19.1744 19.23584 19.23584 0 0 1-19.20512-19.1744v-9.60512z" p-id="21085" fill="#ffffff"></path></svg>