<?xml version="1.0" standalone="no"?><!DOCTYPE svg PUBLIC "-//W3C//DTD SVG 1.1//EN" "http://www.w3.org/Graphics/SVG/1.1/DTD/svg11.dtd"><svg t="1507531972732" class="icon" style="" viewBox="0 0 1024 1024" version="1.1" xmlns="http://www.w3.org/2000/svg" p-id="1021" xmlns:xlink="http://www.w3.org/1999/xlink" width="48" height="48"><defs><style type="text/css"></style></defs><path d="M630.4 496c44.8-32 73.6-86.4 73.6-147.2 0-102.4-83.2-182.4-182.4-182.4-102.4 0-182.4 83.2-182.4 182.4 0 60.8 28.8 115.2 73.6 147.2-115.2 44.8-198.4 156.8-198.4 288 0 16 12.8 28.8 28.8 28.8S272 800 272 784c0-137.6 112-252.8 249.6-252.8s249.6 112 249.6 249.6c0 16 12.8 28.8 28.8 28.8s28.8-12.8 28.8-28.8c-3.2-131.2-83.2-240-198.4-284.8zM521.6 220.8c70.4 0 128 57.6 128 128s-57.6 128-128 128-128-57.6-128-128 57.6-128 128-128z" fill="#129bfb" p-id="1022"></path></svg>