<?xml version="1.0" standalone="no"?><!DOCTYPE svg PUBLIC "-//W3C//DTD SVG 1.1//EN" "http://www.w3.org/Graphics/SVG/1.1/DTD/svg11.dtd"><svg t="1507471550770" class="icon" style="" viewBox="0 0 1024 1024" version="1.1" xmlns="http://www.w3.org/2000/svg" p-id="12928" xmlns:xlink="http://www.w3.org/1999/xlink" width="48" height="48"><defs><style type="text/css"></style></defs><path d="M91.378985 959.47817c0-1.265459 12.706811-46.638387 28.237353-100.828774 31.538319-110.046003 47.030405-148.300442 64.720819-159.814502 6.601006-4.296346 49.564426-20.549734 95.474273-36.118682 85.566715-29.017344 136.706929-52.631757 153.04171-70.668237 5.954161-6.574438 10.157251-21.412915 11.805844-41.679002 2.506634-30.813952 2.114033-32.025088-18.833572-58.099348-11.766467-14.646149-26.475177-40.566149-32.686034-57.6-6.210852-17.033851-13.400392-30.970639-15.976755-30.970639-14.285563 0-33.013821-81.274967-20.509107-89.00331 2.284995-1.412198 1.879828-16.321782-0.900357-33.132401-6.572913-39.74357 2.936228-96.21654 20.154353-119.692872 6.749184-9.202278 16.616719-25.947418 21.927864-37.211418 23.645317-50.147553 67.700009-63.285376 153.077443-45.650186 37.680435 7.783112 71.726694 7.892915 88.563763 0.285645 11.688499-5.28107 25.342413 27.038162 25.342413 59.986176 0 14.890824 3.776358 38.157184 8.391885 51.703025 6.456013 18.947318 7.732378 35.682391 5.533133 72.545244-1.613773 27.048975-0.808909 49.183293 1.848115 50.825431 14.27369 8.821632-2.70551 79.610931-21.508813 89.674173-5.293363 2.832927-9.674906 9.101711-9.736755 13.930634-0.188928 14.769254-19.074611 51.558651-38.865254 75.710464-18.333235 22.373315-18.697677 23.658332-15.469773 54.541609 5.47241 52.357171 28.80809 68.464282 167.791002 115.815526 127.994726 43.607552 117.838285 30.50752 158.089062 203.906611 11.224064 48.352922 20.407398 89.248922 20.407398 90.88 0 1.63113-191.232 2.965658-424.96 2.965658-233.72801 0-424.96001-1.035366-424.96001-2.300826z" p-id="12929" fill="#1296db"></path></svg>