<?xml version="1.0" standalone="no"?><!DOCTYPE svg PUBLIC "-//W3C//DTD SVG 1.1//EN" "http://www.w3.org/Graphics/SVG/1.1/DTD/svg11.dtd"><svg t="1507642844167" class="icon" style="" viewBox="0 0 1024 1024" version="1.1" xmlns="http://www.w3.org/2000/svg" p-id="2377" xmlns:xlink="http://www.w3.org/1999/xlink" width="32" height="32"><defs><style type="text/css"></style></defs><path d="M902.727982 294.712185c4.334725 0 7.861038 3.735068 7.861038 8.327666l0 461.148845c0 4.592598-3.526313 8.328689-7.861038 8.328689L120.280434 772.517385c-4.334725 0-7.861038-3.736091-7.861038-8.328689L112.419396 303.039851c0-4.591575 3.526313-8.327666 7.861038-8.327666l74.404594 0 28.040636 0 18.305925 0 7.762801 0 27.323299 0 46.39568 0L902.727982 294.712185M360.496447 76.128865c-5.443989 0-10.738575 2.706645-13.657045 7.547907l-98.046037 162.66066-7.762801 0-51.299363-45.316092c-3.101641-3.170203-7.29515-4.7727-11.498892-4.7727-3.859911 0-7.728008 1.350764-10.767228 4.076852-6.348592 5.697769-6.67298 15.246239-0.725524 21.326724l27.944446 24.684192-74.404594 0c-31.058366 0-56.235792 25.385157-56.235792 56.701396l0 461.148845c0 31.317263 25.177426 56.70242 56.235792 56.70242l782.448572 0c31.058366 0 56.235792-25.385157 56.235792-56.70242L958.963775 303.039851c0-31.31624-25.177426-56.701396-56.235792-56.701396l-617.555058 0L374.124839 98.765421c4.350075-7.219425 1.769296-16.445554-5.76633-20.611433C365.878015 76.781734 363.169323 76.128865 360.496447 76.128865L360.496447 76.128865zM734.024699 858.694093 326.473563 858.694093c-20.705578 0-66.696028 44.269249-66.696028 65.147766 0 10.446933 11.520381 13.056364 25.622564 13.056364 14.078647 0 30.729885-2.600221 41.073464-2.600221l407.551136 0c9.18008 0 21.282722 1.635243 31.908734 1.635243 13.340843 0 24.355711-2.575662 24.355711-14.196327C790.288121 900.858402 734.024699 858.694093 734.024699 858.694093L734.024699 858.694093z" p-id="2378" fill="#ffffff"></path></svg>