<?xml version="1.0" standalone="no"?><!DOCTYPE svg PUBLIC "-//W3C//DTD SVG 1.1//EN" "http://www.w3.org/Graphics/SVG/1.1/DTD/svg11.dtd"><svg t="1507455112768" class="icon" style="" viewBox="0 0 1024 1024" version="1.1" xmlns="http://www.w3.org/2000/svg" p-id="5673" xmlns:xlink="http://www.w3.org/1999/xlink" width="48" height="48"><defs><style type="text/css"></style></defs><path d="M511.655282 99.660422c227.357252 0 412.328441 184.976186 412.328441 412.338435 0 227.361249-184.97119 412.332439-412.328441 412.332439-227.366845 0-412.341832-184.97119-412.341832-412.332439C99.315848 284.636608 284.288436 99.660422 511.655282 99.660422M511.655282 64.319583c-247.244168 0-447.683271 200.434505-447.683271 447.679273 0 247.254761 200.439102 447.678274 447.683271 447.678274 247.240771 0 447.674277-200.423513 447.674277-447.678274C959.329559 264.754089 758.896052 64.319583 511.655282 64.319583L511.655282 64.319583zM536.334549 248.453141c119.287923 0 144.331743 89.268276 144.331743 164.160299 0 76.981606-31.777455 185.78164-95.937754 242.754812l-14.426219 10.542852 0 15.88523 0 13.588787 0 30.115582 32.275117 4.779759c55.255337 8.899966 96.875119 26.067326 120.982574 36.319375 4.990616 2.12456 9.901287 3.928337 13.358943 5.291412 0.500661 0.200864 1.333096 0.510654 1.783791 0.832436l1.087263 83.710045c-54.277 35.077018-132.391838 72.25681-219.976256 72.25681-73.213561 0-140.473959-20.63401-222.02087-68.557318 0.065556-72.879388 0.075549-91.528744 0.055562-96.750203 42.166211-14.702032 97.561054-30.696188 130.001059-37.942275l25.540683-6.183807 0-28.310805 0-17.107401 0-13.709705-7.140759-10.122137c-55.169395-60.420835-68.838727-177.65415-68.838727-237.393447C377.415496 308.287573 436.007171 248.453141 536.334549 248.453141M536.334549 213.112302c-118.441896 0-195.588391 74.60122-195.588391 199.501138 0 42.912705 5.992937 183.807978 76.756359 261.225289l0 17.107401c-34.870758 7.896646-93.92312 24.974068-137.407438 40.387417-13.559806 4.809739-19.301913 17.798932-18.76068 31.437685 0.059959 1.483994 0.541233 117.304068 0.541233 117.304068 82.468287 50.970242 162.421478 48.614839 257.722664 48.614839 94.525712 0 185.051135-24.842956 255.753999-58.997799l-1.092259-100.527642 0.130911-0.290803c0.019986-12.767344-13.489854-24.843156-26.107299-29.843766-20.784908-8.178455-71.324442-32.260128-142.087265-43.645408l0-13.588787c70.762823-62.765245 107.532893-180.350322 107.532893-269.182894C713.728676 285.824803 651.743902 213.112302 536.334549 213.112302L536.334549 213.112302z" p-id="5674" fill="#bfbfbf"></path></svg>