<?xml version="1.0" standalone="no"?><!DOCTYPE svg PUBLIC "-//W3C//DTD SVG 1.1//EN" "http://www.w3.org/Graphics/SVG/1.1/DTD/svg11.dtd"><svg t="1507558373980" class="icon" style="" viewBox="0 0 1024 1024" version="1.1" xmlns="http://www.w3.org/2000/svg" p-id="17141" xmlns:xlink="http://www.w3.org/1999/xlink" width="32" height="32"><defs><style type="text/css"></style></defs><path d="M1018.746858 673.04179c-0.846274-41.758056-9.259898-81.645508-23.938202-118.361735C917.601226 319.726905 680.984181 4.238534 680.984181 4.238534s-183.106318 244.150626-279.722796 462.844464l0.064468-0.147356c-66.657142-152.6077-170.8379-321.914734-170.8379-321.914734S70.543148 404.932496 20.212856 570.956763c-9.154497 23.779589-14.368242 49.505507-14.893199 76.386738a139.193179 139.193179 0 0 0-0.082888 4.489244c0 124.401288 100.846826 225.24709 225.249138 225.247091 55.19509 0 105.742323-19.865443 144.914484-52.81795 54.120618 114.429169 170.600493 193.597253 305.58686 193.597254 186.603979 0 337.874217-151.270239 337.874217-337.874218 0-2.287089-0.050142-4.608971-0.11461-6.943132zM230.48693 820.769342c-93.301989 0-168.93762-75.638701-168.93762-168.936597 0-1.00898 0.030699-2.056845 0.079817-3.12927 0.793062-17.897625 8.137331-44.491307 19.365047-75.55172l0.002047-0.004093a898.477168 898.477168 0 0 1 8.162913-21.657252c0.026606-0.073678 0.055259-0.144286 0.081865-0.212848a980.564745 980.564745 0 0 1 2.841721-7.190773l0.164752-0.410346c0.945535-2.371 1.908466-4.754281 2.883677-7.151887l0.225127-0.549515c0.960885-2.363837 1.938142-4.736884 2.926656-7.123235 0.095167-0.226151 0.188288-0.454348 0.283456-0.683568 0.979304-2.362814 1.972934-4.737908 2.977821-7.120165l0.317225-0.753153c1.003863-2.381234 2.02103-4.7727 3.047406-7.173376 0.106424-0.24457 0.211824-0.49221 0.316201-0.736781a1667.536802 1667.536802 0 0 1 3.460822-8.023744c1.051959-2.421142 2.113127-4.847401 3.182482-7.2798l0.304946-0.692778c1.081635-2.455935 2.170432-4.91801 3.267416-7.383155 0.102331-0.229221 0.204661-0.457418 0.305969-0.688685a2196.371212 2196.371212 0 0 1 7.081279-15.719006l0.074701-0.164752a2463.885965 2463.885965 0 0 1 11.190877-24.224728h-0.001024c45.809325-97.821933 96.393397-190.561104 96.393398-190.561104s50.582025 92.735078 96.392374 190.559057a2526.93186 2526.93186 0 0 1 7.404643 15.953344l0.170892 0.37453c1.160429 2.52245 2.314719 5.045923 3.462868 7.566326l0.296759 0.651846c1.11745 2.455935 2.230808 4.91187 3.337002 7.364735 0.121773 0.275269 0.246617 0.547469 0.36839 0.820691 1.093914 2.430352 2.180666 4.858658 3.261277 7.280824l0.376577 0.846274c1.061169 2.384303 2.113127 4.762467 3.157922 7.135514 0.149403 0.341784 0.300852 0.682545 0.450255 1.022283 1.033539 2.351558 2.058892 4.697999 3.075035 7.037277l0.437975 1.00898c1.017166 2.343371 2.025123 4.679579 3.0208 7.006577 0.138146 0.319272 0.273223 0.63752 0.408299 0.954745a1476.426183 1476.426183 0 0 1 2.980891 7.014764l0.362251 0.861624a1284.144902 1284.144902 0 0 1 3.276626 7.842619c0.966001 2.334161 1.919722 4.656043 2.861164 6.964622l0.289596 0.709151c0.958838 2.355651 1.90335 4.700045 2.832512 7.02295 0.068562 0.166799 0.134053 0.337691 0.201591 0.50449 0.326435 0.822738 0.641613 1.629103 0.967024 2.443655a724.978672 724.978672 0 0 0-2.719948 8.102539c-14.676257 36.713156-23.086811 76.596516-23.930015 118.349455-0.069585 2.334161-0.118704 4.656043-0.118704 6.944156 0 29.964452 3.922333 59.012022 11.244089 86.677105-30.852682 33.262568-74.919317 54.102199-123.867122 54.102198z m166.417217-343.702969c-0.008186 0.01535-0.013303 0.028653-0.019443 0.042979l0.019443-0.042979z m284.080034 484.48739c-155.50161 0-281.561677-126.059044-281.561677-281.561678 0-1.49505 0.046049-2.976798 0.069584-4.466731 0.978281-34.811854 13.180184-78.543867 32.011065-126.135792h0.002046a829.401953 829.401953 0 0 1 3.689019-9.165754c0.11461-0.278339 0.229221-0.562818 0.345878-0.842181 1.225921-2.990101 2.476401-5.996574 3.75144-9.013281 0.122797-0.285502 0.24457-0.577145 0.366344-0.865717a1045.425985 1045.425985 0 0 1 8.289803-19.035542l0.115634-0.259919c1.39886-3.127224 2.823302-6.266727 4.26514-9.413394l0.410346-0.896416c1.429559-3.112897 2.877537-6.231935 4.343935-9.359159 0.102331-0.217964 0.205685-0.432859 0.305968-0.647753 3.041266-6.472412 6.161327-12.975523 9.355066-19.497053l0.214894-0.445138a1565.494755 1565.494755 0 0 1 4.738931-9.585309l0.411369-0.822738a1525.375012 1525.375012 0 0 1 4.989641-9.905604 1725.216479 1725.216479 0 0 1 10.342556-20.023033c0.050142-0.096191 0.102331-0.193405 0.151449-0.292665 1.735527-3.302209 3.481288-6.601348 5.239328-9.901511l0.187265-0.352017a2051.345188 2051.345188 0 0 1 16.427134-30.203906c78.981842-142.413524 171.535795-271.998881 171.535795-271.998881S773.542226 246.445902 852.519975 388.859425c5.580089 10.0591 11.090593 20.179598 16.494673 30.324656 0.023536 0.046049 0.052189 0.091074 0.073678 0.138147a1991.538057 1991.538057 0 0 1 5.332449 10.078542l0.045025 0.089028a1697.620981 1697.620981 0 0 1 15.456017 30.166043l0.297782 0.603751c1.62194 3.25309 3.231601 6.503111 4.822842 9.748015 0.047072 0.095167 0.093121 0.192382 0.141216 0.286526a1407.090025 1407.090025 0 0 1 9.428744 19.654642c0.089028 0.186242 0.172939 0.372483 0.261966 0.558725 1.474584 3.146667 2.932796 6.284123 4.370541 9.413394 0.132006 0.285502 0.25992 0.568958 0.39295 0.853437 1.441838 3.15076 2.870374 6.297426 4.27128 9.432837a1074.507324 1074.507324 0 0 1 8.419763 19.32309c0.116657 0.276293 0.232291 0.546446 0.344854 0.818645a970.508715 970.508715 0 0 1 3.759627 9.024538c0.116657 0.291642 0.236384 0.577145 0.354064 0.868787a830.903144 830.903144 0 0 1 3.685949 9.14938c18.828834 47.592948 31.03176 91.324962 32.011065 126.136816 0.022513 1.485841 0.064468 2.967588 0.064468 4.462638-0.002047 155.502633-126.060067 281.5627-281.564747 281.562701z" p-id="17142" fill="#ffffff"></path></svg>