<?xml version="1.0" standalone="no"?><!DOCTYPE svg PUBLIC "-//W3C//DTD SVG 1.1//EN" "http://www.w3.org/Graphics/SVG/1.1/DTD/svg11.dtd"><svg t="1507558264084" class="icon" style="" viewBox="0 0 1024 1024" version="1.1" xmlns="http://www.w3.org/2000/svg" p-id="14578" xmlns:xlink="http://www.w3.org/1999/xlink" width="32" height="32"><defs><style type="text/css"></style></defs><path d="M984.4224 192.9216h-250.6496a30.2592 30.2592 0 0 1 0-60.49792h250.6496a30.25408 30.25408 0 0 1 0 60.49792zM307.40992 901.66784H56.76032a30.2592 30.2592 0 0 1 0-60.50816h250.6496a30.2592 30.2592 0 0 1 0 60.50816z" p-id="14579" fill="#ffffff"></path><path d="M909.52192 66.32448v444.47744l-0.08704 1.59232v1.59744c0 1.07008 0.02048 2.10944 0.0768 3.16416-0.896 118.37952-97.4848 214.41536-216.06912 214.41536-116.13696 0-210.816-90.98752-215.552-207.16032l-0.16384-3.8912c-0.14336-7.168-0.29184-25.1136-0.3584-39.99744v-25.25696c0-61.95712-50.41152-112.3584-112.3584-112.3584h-20.1728c-60.3648 0-109.47072 51.6864-109.47072 115.2256v498.432H131.64544V465.34656l0.06656-0.6656 0.23552-3.00544-0.06656-3.01568c-0.0256-1.57184-0.10752-3.1232-0.23552-4.91008 0.67584-118.5792 97.34656-214.8352 216.07424-214.8352 118.67136 0 215.30624 96.17408 216.064 214.66112-0.06656 1.33632-0.10752 2.67264-0.10752 4.01408 0 1.26976 0.04096 2.55488 0.11776 3.84v39.92576c0 62.4128 47.06304 109.48096 109.47072 109.48096h20.1728c61.952 0 112.3584-50.4064 112.3584-112.35328V66.32448h103.72608m8.64256-60.4928h-121.00096c-28.6464 0-51.85536 23.22432-51.85536 51.85024v322.69824-152.73984V498.4832c0 28.63104-23.21408 51.86048-51.85536 51.86048h-20.1728c-28.63104 0-48.96768-20.36224-48.96768-48.98304V438.14912v20.8896c0-0.4864-0.11776-0.9728-0.11776-1.44896 0-0.87552 0.11776-1.7152 0.11776-2.60096 0-152.73984-123.82208-276.57728-276.57728-276.57728S71.14752 302.24896 71.14752 454.9888c0 1.65376 0.22016 3.2512 0.256 4.89984-0.08704 1.05984-0.256 2.10944-0.256 3.1744V965.1968c0 28.63104 23.21408 51.86048 51.86048 51.86048h121.00096c28.6464 0 51.85536-23.22944 51.85536-51.86048V458.13248c0-28.6464 20.34176-54.72256 48.9728-54.72256h20.1728c28.6464 0 51.85536 23.22944 51.85536 51.85536v25.25696s0.2048 44.32896 0.57344 46.35136c6.00576 147.44064 127.09376 265.20064 276.00384 265.20064 152.7552 0 276.57728-123.82208 276.57728-276.57216 0-0.512-0.08704-0.9984-0.08704-1.5104 0.02048-0.31744 0.08704-0.64 0.08704-0.96256V57.68192c0-28.62592-23.21408-51.85024-51.85536-51.85024z" p-id="14580" fill="#ffffff"></path></svg>