<?xml version="1.0" standalone="no"?><!DOCTYPE svg PUBLIC "-//W3C//DTD SVG 1.1//EN" "http://www.w3.org/Graphics/SVG/1.1/DTD/svg11.dtd"><svg t="1507557035624" class="icon" style="" viewBox="0 0 1024 1024" version="1.1" xmlns="http://www.w3.org/2000/svg" p-id="13432" xmlns:xlink="http://www.w3.org/1999/xlink" width="32" height="32"><defs><style type="text/css"></style></defs><path d="M893.456828 709.055005" p-id="13433" fill="#ffffff"></path><path d="M491.889987 337.939709" p-id="13434" fill="#ffffff"></path><path d="M568.154951 338.993714" p-id="13435" fill="#ffffff"></path><path d="M282.57168 256.717849c0.974188 0 2.566452-0.050142 4.146437-0.198521l221.744313-27.232225c15.891945 26.090215 45.090964 42.747593 76.766384 42.747593 31.139208 0 59.950394-16.458857 75.862805-42.250266l213.706243 26.795273c0.626263 0.059352 2.762927 0.3776 2.87242 0.13917 11.360745 0 19.523659-6.360871 24.344454-17.005302 2.534729-5.595438 2.279926-12.413727 2.279926-20.841677l0-84.361363c0-36.018332-23.191188-37.84698-28.14092-37.84698-0.845251 0-1.915629 0.099261-2.749624 0.208754l-216.384235 27.123754c-16.23066-23.734564-42.391483-37.956474-71.552639-37.956474-29.121248 0-56.06183 14.679327-72.301699 38.413891l-228.275054-27.659967c-18.277272-1.64957-41.651632 14.202467-41.651632 37.718043l0 84.361363C243.23886 241.172805 264.562515 256.717849 282.57168 256.717849zM283.147802 137.828089 520.099469 166.491918c8.875135 0.99363 18.142196-3.697205 21.829168-11.787464 7.832386-17.243733 24.685215-27.957749 43.310412-27.957749 18.228153 0 34.665521 10.604522 42.557258 27.6702 3.726881 8.05035 10.839883 12.811794 19.497053 11.648294l216.069057-27.223015 0 75.68475L650.348951 187.602725c-9.353019-1.212618-17.423835 4.184299-20.763906 12.970406-6.976902 18.396999-24.663726 30.751375-44.601824 30.751375-20.09671 0-38.669718-12.781094-45.458331-31.078833-2.981914-8.060583-10.55438-13.278421-18.972097-13.278421-0.824785 0-3.266393 0.050142-4.101411 0.149403l-233.30358 28.494984L283.147802 137.828089 283.147802 137.828089z" p-id="13436" fill="#ffffff"></path><path d="M958.175829 386.077056 720.147644 386.077056c-36.247552-30.699186-84.033905-57.623395-129.485073-57.623395-53.054333 0-102.629425 23.3805-134.494157 64.129576C186.206936 421.684018 151.222143 588.691683 145.099702 762.653737l-19.301602 0c-20.284999 0-46.289256 18.212804-46.289256 40.426735l0 70.864978c0 19.658735 21.442358 30.947849 46.289256 30.947849l248.025886 0c21.120017 0 32.119535-10.334369 32.119535-30.947849L405.943522 803.080471c0-21.836331-11.972683-40.426735-32.119535-40.426735l-19.71911 0c4.591575-102.33062 28.136827-141.324726 106.476033-153.787572 32.103162 37.966707 78.845743 58.375525 130.080637 58.375525 53.18327 0 102.848413-17.151635 134.950552-68.316945L958.173782 598.924745c11.241019 0 17.750269-5.485945 17.750269-16.726963L975.924051 409.181263C975.926098 397.940245 969.416847 386.077056 958.175829 386.077056zM934.99385 559.015803 715.119117 559.015803c-6.828522 0-13.198603 4.832052-16.965393 10.527774-24.101931 36.366256-64.274886 58.779731-107.49013 58.779731-42.340317 0-80.564897-18.809391-104.875582-52.223409-4.363378-6.002714-11.538801-9.016351-19.023262-8.043187-126.761032 16.081257-151.310148 85.811388-154.00349 217.184461-0.109494 5.466502 1.988284 9.028631 5.814426 12.93459s9.074679 4.386914 14.541181 4.386914l34.766828 0-0.019443 61.398372-242.063081 0c-0.765433 0 4.876054 3.155876-5.357008 3.076058l0-60.229756c10.233062-0.3776 4.830005-4.244674 5.357008-4.244674l39.080064 0c11.051707 0 20.086477-7.055696 20.345374-18.108426 4.363378-184.556343 28.037567-326.782601 283.906072-351.093287 5.973038-0.566912 11.390421-3.304256 14.809287-8.243755 23.843034-34.44858 63.738673-54.801117 106.724697-54.801117 36.764322 0 76.201519 17.85567 105.501846 50.564629 3.855818 4.304026 9.372461 5.104251 15.157211 5.104251l223.672222 0 0 133.030829L934.99385 559.015803z" p-id="13437" fill="#ffffff"></path></svg>