<?xml version="1.0" standalone="no"?><!DOCTYPE svg PUBLIC "-//W3C//DTD SVG 1.1//EN" "http://www.w3.org/Graphics/SVG/1.1/DTD/svg11.dtd"><svg t="1507558666638" class="icon" style="" viewBox="0 0 1024 1024" version="1.1" xmlns="http://www.w3.org/2000/svg" p-id="18579" xmlns:xlink="http://www.w3.org/1999/xlink" width="32" height="32"><defs><style type="text/css"></style></defs><path d="M1006.933333 608.631467c0-0.034133 0-0.0512 0-0.068267 0 0.1024 0 0.221867 0 0.324267C1006.933333 598.852267 998.5024 597.333333 988.398933 597.333333l-1.9968 0L384.0512 597.333333c0.221867-85.333333 0.4096-156.0576-0.341333-232.413867-0.170667-18.0736 6.4-30.549333 21.8112-38.4 48.247467-24.6272 98.9184-42.734933 152.4736-50.670933 51.694933-7.662933 73.796267 10.564267 85.1456 60.296533C643.345067 337.032533 644.522667 341.333333 645.358933 341.333333c34.7136 0 69.461333 0 105.7792 0 0.392533-17.066667 0.494933-17.783467-0.1536-27.613867-16.247467-110.250667-103.611733-158.685867-196.1472-151.005867-36.113067 2.986667-72.021333 12.117333-107.144533 21.998933-52.206933 14.6944-101.3248 36.1472-139.741867 76.373333-18.039467 18.8928-34.048 43.093333-34.235733 70.417067C273.1008 419.072 273.117867 494.933333 273.527467 597.333333l-237.226667 0c-10.0864 0-18.210133 4.795733-18.449067 14.830933 0 0.136533-0.085333-1.3824-0.085333-1.245867 0 0.5632 0.273067 0.2048 0.324267 0.750933 16.2816 164.9664 231.2704 295.150933 494.267733 295.150933 263.509333 0 478.8736-131.345067 494.3872-296.772267 0.017067-0.341333 0.221867-0.733867 0.221867-1.0752C1006.9504 608.887467 1006.933333 608.7168 1006.933333 608.631467z" p-id="18580" fill="#ffffff"></path><path d="M296.465067 252.0064c0-36.1472-1.450667-69.768533 0.580267-103.185067 1.109333-18.414933 26.385067-26.7776 45.806933-15.069867 9.710933 5.853867 16.418133 4.5056 25.088 0.529067 51.456-23.620267 103.0656-46.916267 154.504533-70.5536 8.6528-3.976533 16.196267-6.570667 20.855467 4.9664 4.983467 12.305067-5.290667 13.073067-12.2368 15.735467-54.4768 20.804267-108.936533 41.6768-163.652267 61.815467-11.2128 4.113067-17.681067 9.250133-15.342933 21.896533 5.290667 28.7744-5.632 46.062933-30.8736 63.880533C308.7872 240.776533 305.3056 242.2272 296.465067 252.0064z" p-id="18581" fill="#ffffff"></path><path d="M764.279467 348.8768l-130.235733 0c-5.1712 0-9.3696 4.1984-9.3696 9.3696l0 23.466667 66.798933 0c3.874133 0 7.031467 3.140267 7.031467 7.031467 0 3.874133-3.157333 7.031467-7.031467 7.031467l-66.798933 0 0 9.403733c0 5.1712 4.1984 9.3696 9.3696 9.3696l130.235733 0c5.1712 0 9.3696-4.1984 9.3696-9.3696l0-46.933333C773.649067 353.0752 769.450667 348.8768 764.279467 348.8768z" p-id="18582" fill="#ffffff"></path></svg>