<?xml version="1.0" standalone="no"?><!DOCTYPE svg PUBLIC "-//W3C//DTD SVG 1.1//EN" "http://www.w3.org/Graphics/SVG/1.1/DTD/svg11.dtd"><svg t="1507558751933" class="icon" style="" viewBox="0 0 1024 1024" version="1.1" xmlns="http://www.w3.org/2000/svg" p-id="19337" xmlns:xlink="http://www.w3.org/1999/xlink" width="32" height="32"><defs><style type="text/css"></style></defs><path d="M870.157169 102.677521l-716.314339 0c-28.14092 0-51.16531 23.024389-51.16531 51.16531l0 716.314339c0 28.14092 23.024389 51.16531 51.16531 51.16531l716.314339 0c28.14092 0 51.16531-23.024389 51.16531-51.16531l0-716.314339C921.322479 125.70191 898.29809 102.677521 870.157169 102.677521zM292.044426 149.565411c113.77016-16.564257 210.098066 79.762625 193.533808 193.532785-9.895371 67.964928-74.515111 132.584668-142.480039 142.480039-113.77016 16.564257-210.098066-79.762625-193.532785-193.532785C159.460782 224.081545 224.080521 159.460782 292.044426 149.565411zM343.098195 874.434589c-113.77016 16.564257-210.098066-79.762625-193.532785-193.532785 9.895371-67.963904 74.515111-132.584668 142.479015-142.480039 113.77016-16.564257 210.098066 79.762625 193.533808 193.532785C475.682863 799.919479 411.063123 864.539218 343.098195 874.434589zM430.661484 513.802042c-0.855484-46.152133 36.731576-83.73817 82.883709-82.882686 43.49563 0.807389 78.986959 36.298717 79.793324 79.795371 0.855484 46.152133-36.730553 83.73817-82.883709 82.882686C466.959178 592.790024 431.466825 557.297672 430.661484 513.802042zM731.954551 874.434589c-113.77016 16.564257-210.098066-79.762625-193.533808-193.532785 9.895371-67.963904 74.515111-132.584668 142.480039-142.480039 113.77016-16.564257 210.098066 79.762625 193.533808 193.532785C864.539218 799.919479 799.919479 864.539218 731.954551 874.434589zM731.954551 485.578234c-113.77016 16.564257-210.098066-79.762625-193.533808-193.532785 9.895371-67.963904 74.515111-132.584668 142.480039-142.480039 113.77016-16.564257 210.098066 79.762625 193.533808 193.532785C864.539218 411.063123 799.919479 475.682863 731.954551 485.578234z" p-id="19338" fill="#ffffff"></path><path d="M318.595129 316.807413m-126.047788 0a123.177 123.177 0 1 0 252.095575 0 123.177 123.177 0 1 0-252.095575 0Z" p-id="19339" fill="#ffffff"></path><path d="M705.404871 316.807413m-126.047788 0a123.177 123.177 0 1 0 252.095575 0 123.177 123.177 0 1 0-252.095575 0Z" p-id="19340" fill="#ffffff"></path><path d="M318.595129 707.71038m-126.047788 0a123.177 123.177 0 1 0 252.095575 0 123.177 123.177 0 1 0-252.095575 0Z" p-id="19341" fill="#ffffff"></path><path d="M705.404871 707.71038m-126.047788 0a123.177 123.177 0 1 0 252.095575 0 123.177 123.177 0 1 0-252.095575 0Z" p-id="19342" fill="#ffffff"></path></svg>