<?xml version="1.0" standalone="no"?><!DOCTYPE svg PUBLIC "-//W3C//DTD SVG 1.1//EN" "http://www.w3.org/Graphics/SVG/1.1/DTD/svg11.dtd"><svg t="1507543993241" class="icon" style="" viewBox="0 0 1024 1024" version="1.1" xmlns="http://www.w3.org/2000/svg" p-id="5272" xmlns:xlink="http://www.w3.org/1999/xlink" width="25" height="25"><defs><style type="text/css"></style></defs><path d="M794.086356 570.409236c-87.404418 0-143.02118 33.975093-183.512044 97.922734-132.177075-16.801382-231.170257-125.614762-244.062176-258.862285 60.87592-41.0959 96.945369-76.886101 100.901373-173.924552 5.631488-138.879011-112.536678-235.638215-234.800473-235.638215C98.015817-0.093082 0.046541 94.292519 0.046541 230.285974 0.046541 651.577129 419.894919 1023.953459 789.339151 1024c150.23507 0 234.614308-96.945369 234.614308-232.147623C1023.953459 662.840105 935.990546 570.409236 794.086356 570.409236zM793.202073 930.871012 793.202073 930.871012c-307.823652-0.046541-698.118353-336.027634-698.118353-701.143532 0-81.074811 60.829379-136.738115 141.578402-136.738115 80.749023 0 136.691573 55.663303 136.691573 136.738115 0 54.918644-20.198891 86.101264-68.83447 111.559313L272.498864 351.944732l0 33.928552c4.18871 190.260522 156.378511 356.924643 353.434051 373.307154l32.71848 2.187438 11.542223-26.063085c24.759931-51.381511 76.606854-74.465958 122.263794-73.535133C873.252977 663.305518 930.871012 704.075629 930.871012 789.29261 930.871012 869.157349 872.97373 930.871012 793.202073 930.871012z" p-id="5273" fill="#129bfb"></path></svg>