<?xml version="1.0" standalone="no"?><!DOCTYPE svg PUBLIC "-//W3C//DTD SVG 1.1//EN" "http://www.w3.org/Graphics/SVG/1.1/DTD/svg11.dtd"><svg t="1507558704661" class="icon" style="" viewBox="0 0 1024 1024" version="1.1" xmlns="http://www.w3.org/2000/svg" p-id="19014" xmlns:xlink="http://www.w3.org/1999/xlink" width="32" height="32"><defs><style type="text/css"></style></defs><path d="M302.08 337.92l30.72 10.24-30.72 117.76-35.84-10.24 35.84-117.76zM532.48 542.72l-30.72-10.24 35.84-117.76 30.72 10.24-35.84 117.76zM378.88 363.52l30.72 10.24-30.72 117.76-35.84-10.24 35.84-117.76zM455.68 389.12l35.84 10.24-35.84 117.76-30.72-10.24 30.72-117.76zM225.28 604.16L256 486.4l35.84 10.24L256 614.4l-30.72-10.24zM486.4 691.2l-30.72-10.24 35.84-117.76 30.72 10.24-35.84 117.76zM302.08 629.76l35.84-117.76 30.72 10.24-35.84 117.76-30.72-10.24zM378.88 655.36l35.84-117.76 30.72 10.24L409.6 665.6l-30.72-10.24zM209.92 768l-30.72-10.24 35.84-117.76 30.72 10.24-35.84 117.76zM445.44 839.68l-35.84-10.24 35.84-117.76 30.72 10.24-30.72 117.76zM286.72 793.6l-30.72-10.24 35.84-122.88 30.72 15.36-35.84 117.76zM363.52 814.08l-30.72-10.24 35.84-117.76 30.72 10.24-35.84 117.76z" p-id="19015" fill="#ffffff"></path><path d="M829.44 158.72s-56.32-30.72-122.88-46.08c-97.28-20.48-174.08-5.12-225.28 51.2-92.16-15.36-184.32 30.72-225.28 112.64l389.12 128c10.24-87.04-30.72-174.08-102.4-215.04 35.84-25.6 87.04-35.84 153.6-20.48 35.84 10.24 71.68 25.6 92.16 35.84v716.8h56.32V168.96l-15.36-10.24z" p-id="19016" fill="#ffffff"></path></svg>