<?xml version="1.0" standalone="no"?><!DOCTYPE svg PUBLIC "-//W3C//DTD SVG 1.1//EN" "http://www.w3.org/Graphics/SVG/1.1/DTD/svg11.dtd"><svg t="1507455227811" class="icon" style="" viewBox="0 0 1024 1024" version="1.1" xmlns="http://www.w3.org/2000/svg" p-id="8032" xmlns:xlink="http://www.w3.org/1999/xlink" width="48" height="48"><defs><style type="text/css"></style></defs><path d="M316.582797 478.255455 709.134311 478.255455l0 44.223201L316.582797 522.478655 316.582797 478.255455 316.582797 478.255455zM316.582797 478.255455" p-id="8033" fill="#bfbfbf"></path><path d="M316.582797 674.191986l240.158708 0 0 44.217061L316.582797 718.409047 316.582797 674.191986 316.582797 674.191986zM316.582797 674.191986" p-id="8034" fill="#bfbfbf"></path><path d="M795.535123 958.599478 229.502509 958.599478c-11.751648 0-23.160489-2.309602-33.915437-6.856152-10.375302-4.38589-19.687388-10.666944-27.680433-18.659989-7.992021-7.994068-14.273075-17.306154-18.659989-27.680433-4.552689-10.754948-6.856152-22.168905-6.856152-33.915437L142.390499 282.319947c0-11.751648 2.304486-23.160489 6.856152-33.915437 4.38589-10.375302 10.666944-19.687388 18.659989-27.680433 7.994068-7.993045 17.306154-14.274098 27.680433-18.665105 10.754948-4.545526 22.163789-6.851035 33.915437-6.851035l85.757153 0 0 43.606147-85.757153 0c-23.990391 0-43.50791 19.515473-43.50791 43.505863l0 589.166497c0 23.990391 19.516496 43.50791 43.50791 43.50791l566.032614 0c23.991414 0 43.512003-19.516496 43.512003-43.50791L839.047126 282.319947c0-23.991414-19.520589-43.505863-43.512003-43.505863l-85.49314 0 0-43.606147 85.49314 0c11.751648 0 23.160489 2.305509 33.914414 6.851035 10.376325 4.39203 19.693528 10.673084 27.686573 18.665105 7.994068 7.994068 14.270005 17.306154 18.659989 27.680433 4.546549 10.754948 6.852058 22.163789 6.852058 33.915437l0 589.166497c0 11.746532-2.305509 23.160489-6.852058 33.915437-4.389984 10.375302-10.665921 19.687388-18.659989 27.680433-7.992021 7.992021-17.310248 14.273075-27.686573 18.659989C818.695612 956.289875 807.286772 958.599478 795.535123 958.599478L795.535123 958.599478zM795.535123 958.599478" p-id="8035" fill="#bfbfbf"></path><path d="M730.254328 325.894372 294.783305 325.894372 294.783305 184.353728c0-30.02585 24.430412-54.458309 54.458309-54.458309l56.227606 0c20.107967-40.033785 61.3513-65.991993 107.049085-65.991993 45.701878 0 86.945211 25.957185 107.048061 65.991993l56.229652 0c30.030967 0 54.458309 24.432459 54.458309 54.458309L730.254328 325.894372 730.254328 325.894372zM338.387405 282.288225l348.266915 0 0-97.933473c0-5.984295-4.868891-10.853186-10.858302-10.853186l-86.188988 0-5.070482-14.688537c-10.589173-30.686906-39.530318-51.303456-72.018244-51.303456s-61.430094 20.617573-72.018244 51.303456l-5.071506 14.688537-86.187965 0c-5.984295 0-10.853186 4.868891-10.853186 10.853186L338.387405 282.288225 338.387405 282.288225zM338.387405 282.288225" p-id="8036" fill="#bfbfbf"></path></svg>