<?xml version="1.0" standalone="no"?><!DOCTYPE svg PUBLIC "-//W3C//DTD SVG 1.1//EN" "http://www.w3.org/Graphics/SVG/1.1/DTD/svg11.dtd"><svg t="1507558305856" class="icon" style="" viewBox="0 0 1024 1024" version="1.1" xmlns="http://www.w3.org/2000/svg" p-id="15361" xmlns:xlink="http://www.w3.org/1999/xlink" width="32" height="32"><defs><style type="text/css"></style></defs><path d="M736 288H288a32 32 0 0 1 0-64h448a32 32 0 0 1 0 64z m-64 448H352a32 32 0 0 1-32-32v-192a32 32 0 0 1 32-32h320a32 32 0 0 1 32 32v192a32 32 0 0 1-32 32z m-288-64h256v-128h-256v128z m192-128h-128a32 32 0 0 1-32-32v-128a32 32 0 0 1 32-32h128a32 32 0 0 1 32 32v128a32 32 0 0 1-32 32z m-96-64h64v-64h-64v64zM288 800a96 96 0 0 1-96-96v-192a96 96 0 1 1 192 0v192a96 96 0 0 1-96 96z m0-320a32 32 0 0 0-32 32v192a32 32 0 0 0 64 0v-192a32 32 0 0 0-32-32z m448 320a96 96 0 0 1-96-96v-192a96 96 0 1 1 192 0v192a96 96 0 0 1-96 96z m0-320a32 32 0 0 0-32 32v192a32 32 0 0 0 64 0v-192a32 32 0 0 0-32-32z m-224-64a32 32 0 0 1-32-32V256a32 32 0 0 1 64 0v128a32 32 0 0 1-32 32z" p-id="15362" fill="#ffffff"></path></svg>