<?xml version="1.0" standalone="no"?><!DOCTYPE svg PUBLIC "-//W3C//DTD SVG 1.1//EN" "http://www.w3.org/Graphics/SVG/1.1/DTD/svg11.dtd"><svg t="1507455263103" class="icon" style="" viewBox="0 0 1027 1024" version="1.1" xmlns="http://www.w3.org/2000/svg" p-id="9205" xmlns:xlink="http://www.w3.org/1999/xlink" width="48.140625" height="48"><defs><style type="text/css"></style></defs><path d="M513.76512 50.773333l442.88 443.093334h-112.213333V981.333333h-189.866667V611.626667H373.818453V981.333333h-189.866666V493.866667H70.671787L513.76512 50.773333m0-50.773333a23.04 23.04 0 0 0-16.213333 6.826667l-490.666667 490.666666a23.04 23.04 0 0 0 16.213333 39.466667h118.186667v463.36A23.04 23.04 0 0 0 164.32512 1024h229.12a23.04 23.04 0 0 0 23.04-23.04V654.293333h195.626667v346.026667A23.04 23.04 0 0 0 634.938453 1024h229.12a23.04 23.04 0 0 0 23.04-23.04V536.533333H1002.938453a23.04 23.04 0 0 0 23.04-23.04 21.333333 21.333333 0 0 0-7.68-17.28L529.978453 6.826667a23.04 23.04 0 0 0-16.213333-6.826667z" p-id="9206" fill="#bfbfbf"></path></svg>