<?xml version="1.0" standalone="no"?><!DOCTYPE svg PUBLIC "-//W3C//DTD SVG 1.1//EN" "http://www.w3.org/Graphics/SVG/1.1/DTD/svg11.dtd"><svg t="1507558641136" class="icon" style="" viewBox="0 0 1024 1024" version="1.1" xmlns="http://www.w3.org/2000/svg" p-id="18260" xmlns:xlink="http://www.w3.org/1999/xlink" width="32" height="32"><defs><style type="text/css"></style></defs><path d="M320.097342 560.117904a186.456622 186.456622 0 0 0-4.137227 12.757558c-9.676383 34.164101-10.909467 71.031776 0.191358 105.047498 5.626137 17.240663 13.71435 33.119305 24.860201 47.428196 9.708106 12.463869 19.268856 25.13547 25.941836 39.541575 6.693446 14.450107 10.005888 30.207999 11.463076 46.022173 0.925069 10.04068-0.301875 11.80486 2.087544 21.637809 4.565992 18.788925 15.34857 21.179368 31.924084 24.032346 23.203468 3.992941 109.547998 3.966335 133.041062 2.681063 20.73423-1.134847 30.043247-2.517333 45.942355-9.863649 7.203052-4.354168 10.958586-8.810666 12.361539-17.193591 2.117221-12.651135 2.142803-16.397459 2.36793-29.190832 0.203638-11.577686 0.652869-22.949688 2.010797-34.45472 1.184989-10.036587 2.165316-27.591405 5.950526-37.055964 7.438413-18.596544 28.672016-25.388227 45.773509-32.102139 24.086581-9.457396 47.442522-18.383696 69.134567-32.732495 21.559015-14.261818 42.354644-25.770943 55.434543-48.423873 10.582009-18.327414 15.009855-38.35147 12.877285-58.728566h27.269064c1.269923 12.33698 0.543376 24.836665-2.811022 36.885072-14.255679 51.200102-61.940724 85.431741-107.59246 107.333564-11.197016 5.372358-22.679535 9.731642-34.221406 14.262842-10.320043 4.052293-21.541619 7.765871-30.655184 14.263865-5.695722 4.061502-9.020444 9.442046-10.710946 16.20303-2.611477 10.443863-4.01443 21.674649-4.738931 32.399921-0.811482 12.008498-0.558725 24.075325-0.998747 36.100196-0.418532 11.438517-0.440022 23.863501-4.195555 34.805714-6.042623 17.607006-29.02301 24.790616-45.304836 28.335349-24.044626 5.235235-108.335381 6.420223-132.87324 5.342681-19.963681-0.876973-41.532929-2.114151-60.516282-8.948813-10.559497-3.801583-21.928429-9.067516-28.831652-18.315134-5.652743-7.572466-7.021927-16.835434-7.405667-26.047236-0.545422-13.108552-1.022283-26.194592-3.803629-39.076994-3.447519-15.968693-10.372232-30.260188-19.746739-43.576471-9.914814-14.08274-21.176298-26.786063-28.81221-42.374086-7.689123-15.694447-13.251815-32.103162-16.181541-49.357128-5.932106-34.938744-1.460258-70.333882 10.574847-103.501282l24.331151 5.862521z" fill="#ffffff" p-id="18261"></path><path d="M820.711014 477.93823H321.323263c-16.711614 0-38.739303 19.832697-38.739303 44.296879s22.027689 44.296879 38.739303 44.296878h499.388774c21.193695 0 39.800471-19.832697 39.800472-44.296878 0-24.464181-18.6078-44.296879-39.801495-44.296879z m-7.324826 69.660546H331.833641c-14.0766 0-25.487487-11.301394-25.487488-25.241894s11.410887-25.241894 25.487488-25.241894H813.386188c14.0766 0 25.487487 11.301394 25.487488 25.241894s-11.410887 25.241894-25.487488 25.241894z" fill="#ffffff" p-id="18262"></path><path d="M213.443253 215.777415v330.435804c0 16.711614 19.832697 38.739303 44.296879 38.739303 24.464181 0 44.296879-22.027689 44.296879-38.739303v-330.435804c0-21.193695-19.832697-39.800471-44.296879-39.800471-24.464181 0-44.296879 18.606777-44.296879 39.800471z m69.660547 7.324826v312.6006c0 14.0766-11.301394 25.487487-25.241894 25.487488-13.9405 0-25.241894-11.410887-25.241894-25.487488V223.102241c0-14.0766 11.301394-25.487487 25.241894-25.487488 13.9405 0 25.241894 11.410887 25.241894 25.487488z" fill="#ffffff" p-id="18263"></path></svg>